<svg xmlns="http://www.w3.org/2000/svg" viewBox="0 0 640 160" width="640" height="160">
  <title>Sageflight wordmark</title>
  <defs>
    <linearGradient id="leafg" x1="0" y1="0" x2="0" y2="1">
      <stop offset="0" stop-color="#b3d3a2"/>
      <stop offset="1" stop-color="#6f8f60"/>
    </linearGradient>
    <clipPath id="dial">
      <circle cx="80" cy="80" r="55"/>
    </clipPath>
  </defs>

  <g clip-path="url(#dial)">
    <g transform="rotate(-10 80 80)">
      <rect x="12" y="80" width="136" height="76" fill="#9dc08b" opacity="0.09"/>
      <line x1="18" y1="80" x2="142" y2="80" stroke="#6f8f60" stroke-width="2.4"/>
    </g>
  </g>
  <circle cx="80" cy="80" r="58" fill="none" stroke="#9dc08b" stroke-width="4.5"/>
  <path d="M80 26 L74 36 L86 36 Z" fill="#e0b458"/>
  <line x1="38" y1="80" x2="57" y2="80" stroke="#e0b458" stroke-width="4.5" stroke-linecap="round"/>
  <line x1="103" y1="80" x2="122" y2="80" stroke="#e0b458" stroke-width="4.5" stroke-linecap="round"/>
  <path d="M80 38 C100 58 101.5 87 80 118 C58.5 87 60 58 80 38 Z" fill="url(#leafg)"/>
  <path d="M80 48 L80 110" stroke="#0e1210" stroke-width="2.2" stroke-linecap="round"/>
  <path d="M80 67 C86 70 90 74 93 80" stroke="#0e1210" stroke-width="1.5" fill="none" stroke-linecap="round"/>
  <path d="M80 67 C74 70 70 74 67 80" stroke="#0e1210" stroke-width="1.5" fill="none" stroke-linecap="round"/>
  <path d="M80 86 C85 88 89 92 91 97" stroke="#0e1210" stroke-width="1.5" fill="none" stroke-linecap="round"/>
  <path d="M80 86 C75 88 71 92 69 97" stroke="#0e1210" stroke-width="1.5" fill="none" stroke-linecap="round"/>

  <text x="162" y="94" font-family="ui-monospace, 'Cascadia Code', Consolas, Menlo, monospace"
        font-size="52" font-weight="700" letter-spacing="6" fill="#dce5dd">SAGE<tspan fill="#9dc08b">FLIGHT</tspan></text>
  <text x="165" y="122" font-family="ui-monospace, 'Cascadia Code', Consolas, Menlo, monospace"
        font-size="15" letter-spacing="3" fill="#8fa094">AI-NATIVE FPV CONFIGURATOR</text>
</svg>
